<?xml version="1.0" encoding="UTF-8" standalone="no"?>
<!DOCTYPE svg PUBLIC "-//W3C//DTD SVG 1.1//EN" "http://www.w3.org/Graphics/SVG/1.1/DTD/svg11.dtd">
<svg width="100%" height="100%" viewBox="0 0 239 90" version="1.1" xmlns="http://www.w3.org/2000/svg" xmlns:xlink="http://www.w3.org/1999/xlink" xml:space="preserve" xmlns:serif="http://www.serif.com/" style="fill-rule:evenodd;clip-rule:evenodd;stroke-linejoin:round;stroke-miterlimit:2;">
    <g transform="matrix(1,0,0,1,-17.918,-15)">
        <g transform="matrix(1,0,0,1,2.91797,0)">
            <circle cx="60" cy="60" r="45" style="fill:white;"/>
        </g>
        <path d="M63.034,18.695C85.947,18.695 104.549,37.297 104.549,60.21C104.549,83.123 85.947,101.726 63.034,101.726C40.121,101.726 21.518,83.123 21.518,60.21C21.518,37.297 40.121,18.695 63.034,18.695ZM66.469,32.789L68.367,32.789C69.586,32.977 70.77,33.199 71.918,33.457C73.066,33.715 74.18,34.195 75.258,34.898L75.258,35.461L73.641,36.234L73.359,37.852C74.438,37.852 75.469,37.934 76.453,38.098C77.438,38.262 78.469,38.508 79.547,38.836L79.758,39.68L80.602,39.68L80.813,40.453L80.602,40.945L75.82,41.508L74.484,41.227L68.859,42.281L67.523,44.883L67.031,44.883L67.031,45.727L66.188,46.219L66.188,46.992L67.805,46.992C69.023,46.852 70.219,46.605 71.391,46.254C72.563,45.902 73.758,45.797 74.977,45.938C76.055,45.938 77.121,46.113 78.176,46.465C79.23,46.816 80.203,47.273 81.094,47.836L81.094,49.102L79.547,49.664L77.086,54.094L74.484,54.938L74.484,54.656L72.867,54.656L68.367,55.992L68.367,58.031L68.859,58.031L70.477,57.82L76.031,58.875L76.031,59.93C74.813,60.633 73.488,61.195 72.059,61.617C70.629,62.039 69.305,62.508 68.086,63.023C67.711,63.727 67.301,64.348 66.855,64.887C66.41,65.426 66.281,66.141 66.469,67.031L67.242,67.031C68.508,66.469 69.762,65.836 71.004,65.133C72.246,64.43 73.664,64.172 75.258,64.359L75.539,64.922L76.031,64.922L76.031,64.359L77.648,64.359L77.648,64.922L78.211,64.922L79.266,64.359L79.758,64.641L79.758,65.133L81.938,65.695L82.148,66.469L82.43,66.469L82.43,67.031C80.508,67.031 78.563,67.207 76.594,67.559C74.625,67.91 72.75,68.344 70.969,68.859L70.969,69.352L75.258,74.906L76.031,75.398L78.211,77.227L81.656,80.18C83.578,80.836 85.477,81.832 87.352,83.168C89.227,84.504 91.148,85.57 93.117,86.367L93.117,86.93L89.109,87.211C86.813,86.367 84.551,85.5 82.324,84.609C80.098,83.719 78,82.406 76.031,80.672L75.82,79.898L75.258,79.898L75.258,79.336L74.484,79.125L68.086,71.742L67.805,70.969L65.695,70.688L64.641,71.18C64.266,73.148 63.809,75.047 63.27,76.875C62.73,78.703 61.758,80.32 60.352,81.727C59.133,82.43 57.902,83.039 56.66,83.555C55.418,84.07 54.164,84.609 52.898,85.172L52.617,84.609C53.695,84.422 54.586,83.895 55.289,83.027C55.992,82.16 56.789,81.375 57.68,80.672C58.758,79.266 59.648,77.859 60.352,76.453C61.055,75.047 61.688,73.57 62.25,72.023L60.352,72.023L55.57,72.234L52.898,71.18L52.125,70.125L52.406,70.125L55.289,70.688L63.305,68.297L63.797,64.078L62.742,64.078L59.789,64.359L56.344,61.758L56.344,61.195L59.789,62.039L63.797,60.703L63.797,57.539L63.305,57.539L59.297,58.594L59.297,59.648L58.523,59.648L56.133,58.875L56.133,58.313L55.57,58.313L53.461,54.938L51.07,53.602L50.789,53.039L51.563,53.039C53.344,53.039 54.949,53.566 56.379,54.621C57.809,55.676 59.484,56.133 61.406,55.992L63.305,55.148L63.516,54.094L62.742,50.156L62.25,50.156L62.25,49.383L59.578,48.891L64.852,47.555L66.469,42.563L64.852,42.563L63.305,42.844L63.305,43.336L61.969,44.109L61.969,46.781L60.07,46.781L58.523,45.938C57.445,45.609 56.414,45.316 55.43,45.059C54.445,44.801 53.508,44.414 52.617,43.898L52.617,43.336L52.125,43.336L51.844,42.563L52.125,42.563L53.953,42.844L56.625,42L56.625,41.227C56.109,40.523 55.629,39.82 55.184,39.117C54.738,38.414 54.516,37.641 54.516,36.797L55.289,38.063C56.555,38.578 57.715,39.234 58.77,40.031C59.824,40.828 61.055,41.133 62.461,40.945L68.086,39.398C68.414,38.695 68.625,37.91 68.719,37.043C68.813,36.176 68.859,35.297 68.859,34.406L67.523,33.633L66.469,32.789ZM37.711,83.273L35.883,82.5L35.602,82.008L34.828,82.008C34.266,81.305 33.809,80.508 33.457,79.617C33.105,78.727 32.859,77.859 32.719,77.016L33.773,76.734L33.773,75.398C34.477,75.398 35.051,75.188 35.496,74.766C35.941,74.344 36.422,73.945 36.938,73.57L40.664,68.297L40.664,69.07C40.148,69.961 39.715,70.805 39.363,71.602C39.012,72.398 38.836,73.312 38.836,74.344L39.891,77.016L40.383,77.227L40.383,78.07L39.891,80.18L39.328,80.18L38.273,83.063L37.711,83.273ZM38.273,56.203L38.273,55.992L38.555,54.656C38.18,53.953 37.723,53.203 37.184,52.406C36.645,51.609 36.117,50.859 35.602,50.156L36.164,50.156L43.055,52.547L43.828,53.32L44.109,54.375L43.828,55.43L42.563,55.43L39.891,54.938L38.555,56.203L38.273,56.203ZM70.758,52.828L70.758,51.984L72.094,47.836L70.969,47.836L64.852,49.102L64.852,49.664L68.086,50.93L68.578,53.039L69.914,53.039L70.758,52.828ZM39.047,45.938L39.609,44.391L37.5,42.563L37.5,42L36.656,41.789C36.328,41.227 35.941,40.687 35.496,40.172C35.051,39.656 34.922,39.047 35.109,38.344L36.164,38.344L36.938,39.68L44.109,43.336L44.391,44.391L44.109,44.883L43.828,44.883L43.828,44.672L40.102,44.391L39.047,45.938Z" style="fill:rgb(139,0,0);"/>
        <g transform="matrix(1,0,0,1,130,55)">
            <text x="0px" y="0px" style="font-family:'NotoSansJP-Thin', 'Noto Sans JP', sans-serif;font-weight:100;font-size:24px;">Kanji-Ras<tspan x="97.944px 105.696px " y="0px 0px ">te</tspan>r</text>
        </g>
        <g transform="matrix(1,0,0,1,130,85)">
            <text x="0px" y="0px" style="font-family:'NotoSansJP-Thin', 'Noto Sans JP', sans-serif;font-weight:100;font-size:20px;fill:rgb(68,68,68);">Gener<tspan x="52.24px 62.74px 69.2px " y="0px 0px 0px ">ato</tspan>r</text>
        </g>
    </g>
</svg>
