<?xml version="1.0" encoding="UTF-8" standalone="no"?>
<!DOCTYPE svg PUBLIC "-//W3C//DTD SVG 1.1//EN" "http://www.w3.org/Graphics/SVG/1.1/DTD/svg11.dtd">
<svg width="100%" height="100%" viewBox="0 0 2202 560" version="1.1"
    xmlns="http://www.w3.org/2000/svg" xmlns:xlink="http://www.w3.org/1999/xlink"
    xml:space="preserve" xmlns:serif="http://www.serif.com/"
    style="fill-rule:evenodd;clip-rule:evenodd;stroke-linecap:round;stroke-linejoin:round;stroke-miterlimit:1.5;">
    <g transform="matrix(1,0,0,1,-139.608,-45.1195)">
        <g id="Raster">
            <g transform="matrix(1.00005,0,0,0.993291,3.3355,2.29921)">
                <rect x="138.39" y="45.248" width="2196.74" height="558.868" style="fill:none;stroke:black;stroke-width:4.26px;"/>
            </g>
            <path d="M593.714,229.666L593.23,416.255" style="fill:none;stroke:rgb(49,49,49);stroke-opacity:0.22;stroke-width:1.63px;"/>
            <g transform="matrix(1,0,0,1,0,-4)">
                <path d="M502.789,320.921L684.962,321.318" style="fill:none;stroke:rgb(49,49,49);stroke-opacity:0.22;stroke-width:1.63px;"/>
            </g>
            <g transform="matrix(1,0,0,1,182.98,-0.051214)">
                <path d="M593.714,229.666L593.23,416.255" style="fill:none;stroke:rgb(49,49,49);stroke-opacity:0.22;stroke-width:1.63px;"/>
            </g>
            <g transform="matrix(1,0,0,1,182.98,-4.05121)">
                <path d="M502.789,320.921L684.962,321.318" style="fill:none;stroke:rgb(49,49,49);stroke-opacity:0.22;stroke-width:1.63px;"/>
            </g>
            <g transform="matrix(1,2.61971e-05,2.61971e-05,0.98989,365.142,1.49933)">
                <path d="M593.714,229.666L593.23,416.255" style="fill:none;stroke:rgb(49,49,49);stroke-opacity:0.22;stroke-width:1.64px;"/>
            </g>
            <g transform="matrix(1,0,0,1,366.153,-3.69329)">
                <path d="M502.789,320.921L684.962,321.318" style="fill:none;stroke:rgb(49,49,49);stroke-opacity:0.22;stroke-width:1.63px;"/>
            </g>
            <g transform="matrix(1,0,0,1,547.326,-1.69329)">
                <path d="M593.714,229.666L593.23,416.255" style="fill:none;stroke:rgb(49,49,49);stroke-opacity:0.22;stroke-width:1.63px;"/>
            </g>
            <g transform="matrix(1,0,0,1,548.326,-3.69329)">
                <path d="M502.789,320.921L684.962,321.318" style="fill:none;stroke:rgb(49,49,49);stroke-opacity:0.22;stroke-width:1.63px;"/>
            </g>
            <g transform="matrix(1,0,0,1,734.368,-0.693295)">
                <path d="M593.714,229.666L593.23,416.255" style="fill:none;stroke:rgb(49,49,49);stroke-opacity:0.22;stroke-width:1.63px;"/>
            </g>
            <g transform="matrix(1,0,0,1,734.368,-3.69329)">
                <path d="M502.789,320.921L684.962,321.318" style="fill:none;stroke:rgb(49,49,49);stroke-opacity:0.22;stroke-width:1.63px;"/>
            </g>
            <g transform="matrix(1,0,0,1,916.542,-0.157265)">
                <path d="M593.714,229.666L593.23,416.255" style="fill:none;stroke:rgb(49,49,49);stroke-opacity:0.22;stroke-width:1.63px;"/>
            </g>
            <g transform="matrix(1,0,0,1,916.542,-3.15727)">
                <path d="M502.789,320.921L684.962,321.318" style="fill:none;stroke:rgb(49,49,49);stroke-opacity:0.22;stroke-width:1.63px;"/>
            </g>
            <g transform="matrix(1,0,0,1,1098.71,-0.157265)">
                <path d="M593.714,229.666L593.23,416.255" style="fill:none;stroke:rgb(49,49,49);stroke-opacity:0.22;stroke-width:1.63px;"/>
            </g>
            <g transform="matrix(1,0,0,1,1098.71,-3.15727)">
                <path d="M502.789,320.921L684.962,321.318" style="fill:none;stroke:rgb(49,49,49);stroke-opacity:0.22;stroke-width:1.63px;"/>
            </g>
            <g transform="matrix(1,0,0,1,1284,0.842735)">
                <path d="M593.714,229.666L593.23,416.255" style="fill:none;stroke:rgb(49,49,49);stroke-opacity:0.22;stroke-width:1.63px;"/>
            </g>
            <g transform="matrix(1,0,0,1,1284,-2.15727)">
                <path d="M502.789,320.921L684.962,321.318" style="fill:none;stroke:rgb(49,49,49);stroke-opacity:0.22;stroke-width:1.63px;"/>
            </g>
            <g transform="matrix(1,0,0,1,1466.17,0.842735)">
                <path d="M593.714,229.666L593.23,416.255" style="fill:none;stroke:rgb(49,49,49);stroke-opacity:0.22;stroke-width:1.63px;"/>
            </g>
            <g transform="matrix(1,0,0,1,1466.17,-2.15727)">
                <path d="M502.789,320.921L684.962,321.318" style="fill:none;stroke:rgb(49,49,49);stroke-opacity:0.22;stroke-width:1.63px;"/>
            </g>
            <g transform="matrix(1,0,0,1,1648.34,0.842735)">
                <path d="M593.714,229.666L593.23,416.255" style="fill:none;stroke:rgb(49,49,49);stroke-opacity:0.22;stroke-width:1.63px;"/>
            </g>
            <g transform="matrix(1.02898,6.32079e-05,6.32079e-05,1,1633.75,-2.18909)">
                <path d="M502.789,320.921L684.962,321.318" style="fill:none;stroke:rgb(49,49,49);stroke-opacity:0.22;stroke-width:1.61px;"/>
            </g>
            <g transform="matrix(1,0,0,1,9.09495e-13,185.265)">
                <path d="M593.714,229.666L593.23,416.255" style="fill:none;stroke:rgb(49,49,49);stroke-opacity:0.22;stroke-width:1.63px;"/>
            </g>
            <g transform="matrix(1,0,0,1,9.09495e-13,181.265)">
                <path d="M502.789,320.921L684.962,321.318" style="fill:none;stroke:rgb(49,49,49);stroke-opacity:0.22;stroke-width:1.63px;"/>
            </g>
            <g transform="matrix(1,0,0,1,182.98,185.213)">
                <path d="M593.714,229.666L593.23,416.255" style="fill:none;stroke:rgb(49,49,49);stroke-opacity:0.22;stroke-width:1.63px;"/>
            </g>
            <g transform="matrix(1,0,0,1,182.98,181.213)">
                <path d="M502.789,320.921L684.962,321.318" style="fill:none;stroke:rgb(49,49,49);stroke-opacity:0.22;stroke-width:1.63px;"/>
            </g>
            <g transform="matrix(1,-4.91075e-05,-4.91075e-05,1.01895,365.164,178.248)">
                <path d="M593.714,229.666L593.23,416.255" style="fill:none;stroke:rgb(49,49,49);stroke-opacity:0.22;stroke-width:1.62px;"/>
            </g>
            <g transform="matrix(1,0,0,1,366.153,181.571)">
                <path d="M502.789,320.921L684.962,321.318" style="fill:none;stroke:rgb(49,49,49);stroke-opacity:0.22;stroke-width:1.63px;"/>
            </g>
            <g transform="matrix(1,0,0,1,547.326,183.571)">
                <path d="M593.714,229.666L593.23,416.255" style="fill:none;stroke:rgb(49,49,49);stroke-opacity:0.22;stroke-width:1.63px;"/>
            </g>
            <g transform="matrix(1,0,0,1,548.326,181.571)">
                <path d="M502.789,320.921L684.962,321.318" style="fill:none;stroke:rgb(49,49,49);stroke-opacity:0.22;stroke-width:1.63px;"/>
            </g>
            <g transform="matrix(1,0,0,1,734.368,184.571)">
                <path d="M593.714,229.666L593.23,416.255" style="fill:none;stroke:rgb(49,49,49);stroke-opacity:0.22;stroke-width:1.63px;"/>
            </g>
            <g transform="matrix(1,0,0,1,734.368,181.571)">
                <path d="M502.789,320.921L684.962,321.318" style="fill:none;stroke:rgb(49,49,49);stroke-opacity:0.22;stroke-width:1.63px;"/>
            </g>
            <g transform="matrix(1,0,0,1,916.542,185.107)">
                <path d="M593.714,229.666L593.23,416.255" style="fill:none;stroke:rgb(49,49,49);stroke-opacity:0.22;stroke-width:1.63px;"/>
            </g>
            <g transform="matrix(1,0,0,1,916.542,182.107)">
                <path d="M502.789,320.921L684.962,321.318" style="fill:none;stroke:rgb(49,49,49);stroke-opacity:0.22;stroke-width:1.63px;"/>
            </g>
            <g transform="matrix(1,0,0,1,1098.71,185.107)">
                <path d="M593.714,229.666L593.23,416.255" style="fill:none;stroke:rgb(49,49,49);stroke-opacity:0.22;stroke-width:1.63px;"/>
            </g>
            <g transform="matrix(1,0,0,1,1098.71,182.107)">
                <path d="M502.789,320.921L684.962,321.318" style="fill:none;stroke:rgb(49,49,49);stroke-opacity:0.22;stroke-width:1.63px;"/>
            </g>
            <g transform="matrix(1,0,0,1,1284,186.107)">
                <path d="M593.714,229.666L593.23,416.255" style="fill:none;stroke:rgb(49,49,49);stroke-opacity:0.22;stroke-width:1.63px;"/>
            </g>
            <g transform="matrix(1,0,0,1,1284,183.107)">
                <path d="M502.789,320.921L684.962,321.318" style="fill:none;stroke:rgb(49,49,49);stroke-opacity:0.22;stroke-width:1.63px;"/>
            </g>
            <g transform="matrix(1,0,0,1,1466.17,186.107)">
                <path d="M593.714,229.666L593.23,416.255" style="fill:none;stroke:rgb(49,49,49);stroke-opacity:0.22;stroke-width:1.63px;"/>
            </g>
            <g transform="matrix(1,0,0,1,1466.17,183.107)">
                <path d="M502.789,320.921L684.962,321.318" style="fill:none;stroke:rgb(49,49,49);stroke-opacity:0.22;stroke-width:1.63px;"/>
            </g>
            <g transform="matrix(1,0,0,1,1648.34,186.107)">
                <path d="M593.714,229.666L593.23,416.255" style="fill:none;stroke:rgb(49,49,49);stroke-opacity:0.22;stroke-width:1.63px;"/>
            </g>
            <g transform="matrix(1.02898,6.32079e-05,6.32079e-05,1,1633.75,183.076)">
                <path d="M502.789,320.921L684.962,321.318" style="fill:none;stroke:rgb(49,49,49);stroke-opacity:0.22;stroke-width:1.61px;"/>
            </g>
            <g transform="matrix(1.00873,0,0,1,-21.6687,0)">
                <rect x="161.987" y="228.859" width="2176.6" height="0.807" style="stroke:black;stroke-width:4.23px;"/>
            </g>
            <g transform="matrix(0.842581,0,0,1,364.651,187.396)">
                <rect x="161.987" y="228.859" width="2176.6" height="0.807" style="stroke:black;stroke-width:4.6px;"/>
            </g>
            <g transform="matrix(1.55721e-17,-0.254312,1,6.12323e-17,640.845,643.557)">
                <rect x="161.987" y="228.859" width="2176.6" height="0.807" style="stroke:black;stroke-width:5.82px;"/>
            </g>
            <g transform="matrix(1.55721e-17,-0.254312,1,6.12323e-17,1371.25,643.557)">
                <rect x="161.987" y="228.859" width="2176.6" height="0.807" style="stroke:black;stroke-width:5.82px;"/>
            </g>
            <g transform="matrix(1.04961e-17,-0.171414,1,6.12323e-17,1921.39,630.129)">
                <rect x="161.987" y="228.859" width="2176.6" height="0.807" style="stroke:black;stroke-width:5.92px;"/>
            </g>
            <g transform="matrix(1.04847e-17,-0.171229,1,6.12323e-17,1740.68,630.099)">
                <rect x="161.987" y="228.859" width="2176.6" height="0.807" style="stroke:black;stroke-width:5.92px;"/>
            </g>
            <g transform="matrix(1.04862e-17,-0.171252,1,6.12323e-17,1556.34,630.103)">
                <rect x="161.987" y="228.859" width="2176.6" height="0.807" style="stroke:black;stroke-width:5.92px;"/>
            </g>
            <g transform="matrix(1.04847e-17,-0.171229,0.325,1.99005e-17,1526.03,630.099)">
                <rect x="161.987" y="228.859" width="2176.6" height="0.807" style="stroke:black;stroke-width:16.36px;"/>
            </g>
            <g transform="matrix(1.04862e-17,-0.171252,1,6.12323e-17,1190.74,630.103)">
                <rect x="161.987" y="228.859" width="2176.6" height="0.807" style="stroke:black;stroke-width:5.92px;"/>
            </g>
            <g transform="matrix(1.04862e-17,-0.171252,1,6.12323e-17,1005.49,630.103)">
                <rect x="161.987" y="228.859" width="2176.6" height="0.807" style="stroke:black;stroke-width:5.92px;"/>
            </g>
            <g transform="matrix(1.04862e-17,-0.171252,1,6.12323e-17,821.758,630.103)">
                <rect x="161.987" y="228.859" width="2176.6" height="0.807" style="stroke:black;stroke-width:5.92px;"/>
            </g>
            <g transform="matrix(1.05074e-17,-0.1716,1,6.12323e-17,640.441,630.159)">
                <rect x="161.987" y="228.859" width="2176.6" height="0.807" style="stroke:black;stroke-width:5.92px;"/>
            </g>
            <g transform="matrix(1.05074e-17,-0.1716,1,6.12323e-17,456.103,630.159)">
                <rect x="161.987" y="228.859" width="2176.6" height="0.807" style="stroke:black;stroke-width:5.92px;"/>
            </g>
            <g transform="matrix(1.04862e-17,-0.171252,1,6.12323e-17,271.765,630.103)">
                <rect x="161.987" y="228.859" width="2176.6" height="0.807" style="stroke:black;stroke-width:5.92px;"/>
            </g>
        </g>
        <g id="Textfelder">
            <text id="MainKanji" x="196.239px" y="510.924px" style="font-family:'MalgunGothic', 'Malgun Gothic', sans-serif;font-size:250px;">魚</text>
            <text id="Romaji" x="466.613px" y="156.363px" style="font-family:''MalgunGothic, sans-serif;font-size:50px;">ﬁsh</text>
            <g transform="matrix(1,0,0,1,727.568,0)">
                <text id="KunLesung" x="457.064px" y="157.437px" style="font-family:'MalgunGothic', 'Malgun Gothic', sans-serif;font-size:50px;">さかな</text>
            </g>
            <g transform="matrix(1,0,0,1,1455.14,0)">
                <text id="OnLesung" x="437.589px" y="157.437px" style="font-family:'MalgunGothic', 'Malgun Gothic', sans-serif;font-size:50px;">ギョ</text>
            </g>
            <g transform="matrix(1,0,0,1,2,0.498199)">
                <text id="Kanjitr" x="525.187px" y="373.209px" style="font-family:'MalgunGothic', 'Malgun Gothic', sans-serif;font-size:133.333px;fill-opacity:0.29;">魚</text>
            </g>
            <g  transform="matrix(1,0,0,1,185.772,0.498199)">
                <text id="Kanjitr1" serif:id="Kanjitr" x="525.906px" y="373.459px" style="font-family:'MalgunGothic', 'Malgun Gothic', sans-serif;font-size:133.333px;fill-opacity:0.29;">魚</text>
            </g>
            <g  transform="matrix(1,0,0,1,368.428,0.498199)">
                <text id="Kanjitr2" serif:id="Kanjitr" x="525.906px" y="373.459px" style="font-family:'MalgunGothic', 'Malgun Gothic', sans-serif;font-size:133.333px;fill-opacity:0.29;">魚</text>
            </g>
            <g  transform="matrix(1,0,0,1,552.084,0.498199)">
                <text id="Kanjitr3" serif:id="Kanjitr" x="525.906px" y="373.459px" style="font-family:'MalgunGothic', 'Malgun Gothic', sans-serif;font-size:133.333px;fill-opacity:0.29;">魚</text>
            </g>
            <g  transform="matrix(1,0,0,1,735.717,0.498199)">
                <text id="Kanjitr4" serif:id="Kanjitr" x="525.906px" y="373.459px" style="font-family:'MalgunGothic', 'Malgun Gothic', sans-serif;font-size:133.333px;fill-opacity:0.29;">魚</text>
            </g>
            <g transform="matrix(1,0,0,1,919.373,0.498199)">
                <text id="Kanjitr5" serif:id="Kanjitr" x="524.353px" y="373.459px" style="font-family:'MalgunGothic', 'Malgun Gothic', sans-serif;font-size:133.333px;fill-opacity:0.29;">魚</text>
            </g>
            <g transform="matrix(1,0,0,1,1099.92,0.498199)">
                <text id="Kanjitr6" serif:id="Kanjitr" x="526.545px" y="373.459px" style="font-family:'MalgunGothic', 'Malgun Gothic', sans-serif;font-size:133.333px;fill-opacity:0.29;">魚</text>
            </g>
            <g transform="matrix(1,0,0,1,1284.45,0.498199)">
                <text id="Kanjitr7" serif:id="Kanjitr" x="526.545px" y="373.459px" style="font-family:'MalgunGothic', 'Malgun Gothic', sans-serif;font-size:133.333px;fill-opacity:0.29;">魚</text>
            </g>
            <g transform="matrix(1,0,0,1,1468.45,0.498199)">
                <text id="Kanjitr8" serif:id="Kanjitr" x="526.545px" y="373.459px" style="font-family:'MalgunGothic', 'Malgun Gothic', sans-serif;font-size:133.333px;fill-opacity:0.29;">魚</text>
            </g>
            <g transform="matrix(1,0,0,1,1653.39,0.498199)">
                <text id="Kanjitr9" serif:id="Kanjitr" x="526.545px" y="373.459px" style="font-family:'MalgunGothic', 'Malgun Gothic', sans-serif;font-size:133.333px;fill-opacity:0.29;">魚</text>
            </g>
        </g>
    </g>
</svg>